<svg xmlns="http://www.w3.org/2000/svg">
	<symbol id="lightbulb" viewBox="0 0 100 100">
<path d="M 50 6 C 42.278594 6 36 12.27859 36 20 L 36 50 C 36 57.7214 42.278594 64 50 64 C 57.721406 64 64 57.7214 64 50 L 64 20 C 64 12.27859 57.721406 6 50 6 z M 50 10 C 55.574594 10 60 14.42541 60 20 L 60 50 C 60 55.5746 55.574594 60 50 60 C 44.425406 60 40 55.5746 40 50 L 40 20 C 40 14.42541 44.425406 10 50 10 z M 22.78125 40.96875 A 2.0002 2.0002 0 0 0 21 43 L 21 50 C 21 65.360198 32.902163 77.913665 48 78.9375 L 48 90 L 33 90 A 2.0002 2.0002 0 0 0 32.8125 90 A 2.0021961 2.0021961 0 1 0 33 94 L 67 94 A 2.0002 2.0002 0 1 0 67 90 L 52 90 L 52 78.9375 C 67.097837 77.913665 79 65.360198 79 50 L 79 43 A 2.0002 2.0002 0 1 0 75 43 L 75 50 C 75 63.8846 63.884594 75 50 75 C 36.115406 75 25 63.8846 25 50 L 25 43 A 2.0002 2.0002 0 0 0 22.96875 40.96875 A 2.0002 2.0002 0 0 0 22.78125 40.96875 z " transform="translate(0,952.36218)"></path>
	</symbol>	

</svg>
