<svg xmlns="http://www.w3.org/2000/svg" xmlns:xlink="http://www.w3.org/1999/xlink" version="1.1" x="0px" y="0px" viewBox="0 0 100 100" enable-background="new 0 0 100 100" xml:space="preserve"><path d="M80.382,32.212l13.159-14.83c3.189-3.595,1.578-7.65-2.019-10.84c-3.595-3.191-7.812-4.309-11.004-0.713L67.36,20.66  c-2.536,2.858-2.841,6.917-1.056,10.066l-3.288,3.704c-3.036-2.135-6.582-3.593-10.426-4.13v11.837  c0.925,0.259,1.798,0.636,2.621,1.089l-5.602,6.314l-5.839-6.583c0.85-0.418,1.751-0.749,2.696-0.966V30.229  c-3.87,0.447-7.45,1.83-10.535,3.896l-3.016-3.398c1.785-3.149,1.479-7.208-1.056-10.066L18.702,5.83  C15.51,2.234,11.293,3.352,7.697,6.542c-3.596,3.19-5.208,7.245-2.018,10.84l13.159,14.83c2.493,2.809,6.392,3.614,9.695,2.316  l2.999,3.379c-3.181,3.481-5.365,7.888-6.069,12.774h11.824c0.424-1.47,1.117-2.825,2.014-4.018l6.431,7.247l-6.598,7.438  c-0.962-1.342-1.668-2.877-2.037-4.543H25.344c0.569,5.094,2.75,9.697,5.998,13.322L11.471,92.525  c-1.063,1.199-0.954,3.033,0.244,4.098c0.553,0.488,1.24,0.73,1.925,0.73c0.801,0,1.598-0.33,2.171-0.977l19.894-22.422  c3.139,2.148,6.801,3.584,10.762,4.043v-11.75v-0.002c-1.04-0.238-2.027-0.613-2.95-1.094l6.093-6.869l5.86,6.605  c-0.896,0.52-1.859,0.936-2.879,1.221v11.809c3.934-0.551,7.559-2.062,10.646-4.275l20.172,22.734  c0.573,0.646,1.37,0.977,2.172,0.977c0.685,0,1.372-0.242,1.924-0.73c1.199-1.064,1.309-2.898,0.245-4.098L67.515,69.719  c3.049-3.559,5.088-8.008,5.635-12.912H61.398c-0.327,1.477-0.92,2.852-1.72,4.082l-6.189-6.977l6.016-6.78  c0.737,1.079,1.329,2.265,1.701,3.55h11.828c-0.678-4.698-2.719-8.957-5.701-12.372l3.354-3.782  C73.99,35.827,77.89,35.021,80.382,32.212z"></path></svg>