<svg xmlns="http://www.w3.org/2000/svg" xmlns:xlink="http://www.w3.org/1999/xlink" version="1.2" baseProfile="tiny" x="0px" y="0px" viewBox="0 0 100 100" xml:space="preserve"><path d="M71.019,28.594c-5.791-5.686-13.459-8.748-21.575-8.589C33.775,20.29,20.86,32.758,20.042,48.391   c-0.56,10.697,4.421,20.629,13.323,26.569c1.961,1.308,3.543,3.041,4.673,5.04H37.5c-1.381,0-2.5,1.119-2.5,2.5v10   c0,1.381,1.119,2.5,2.5,2.5h25c1.381,0,2.5-1.119,2.5-2.5v-10c0-1.381-1.119-2.5-2.5-2.5h-0.464   c1.176-2.029,2.824-3.826,4.867-5.221C75.104,69.179,80,59.916,80,50C80,41.884,76.811,34.281,71.019,28.594z M60,90h-2.5h-15H40   v-5h4.853h10.306H60V90z M64.083,70.65c-3.475,2.373-6.09,5.642-7.603,9.35H43.576c-1.472-3.703-4.031-6.926-7.436-9.199   C28.72,65.85,24.568,57.57,25.035,48.653c0.682-13.024,11.443-23.412,24.5-23.649c6.776-0.117,13.155,2.419,17.98,7.157   C72.342,36.901,75,43.236,75,50C75,58.262,70.919,65.982,64.083,70.65z"></path><path d="M38.353,6.534c-1.334,0.357-2.125,1.728-1.768,3.062l1.294,4.83c0.299,1.117,1.309,1.854,2.413,1.854   c0.214,0,0.432-0.028,0.648-0.086c1.334-0.357,2.125-1.728,1.768-3.062l-1.294-4.83C41.057,6.967,39.682,6.177,38.353,6.534z"></path><path d="M18.18,18.18c-0.977,0.976-0.977,2.559,0,3.535l3.536,3.536c0.488,0.488,1.128,0.732,1.768,0.732s1.28-0.244,1.768-0.732   c0.977-0.976,0.977-2.559,0-3.535l-3.536-3.536C20.74,17.204,19.156,17.204,18.18,18.18z"></path><path d="M78.284,74.749c-0.976-0.977-2.56-0.977-3.535,0c-0.977,0.976-0.977,2.559,0,3.535l3.536,3.536   c0.488,0.488,1.128,0.732,1.768,0.732s1.28-0.244,1.768-0.732c0.977-0.976,0.977-2.559,0-3.535L78.284,74.749z"></path><path d="M21.716,74.749l-3.536,3.536c-0.977,0.976-0.977,2.559,0,3.535c0.488,0.488,1.128,0.732,1.768,0.732   s1.28-0.244,1.768-0.732l3.536-3.536c0.977-0.976,0.977-2.559,0-3.535C24.275,73.772,22.691,73.772,21.716,74.749z"></path><path d="M78.285,18.18l-3.536,3.536c-0.977,0.976-0.977,2.559,0,3.535c0.488,0.488,1.128,0.732,1.768,0.732s1.28-0.244,1.768-0.732   l3.536-3.536c0.977-0.976,0.977-2.559,0-3.535C80.844,17.204,79.26,17.204,78.285,18.18z"></path><path d="M58.585,8.301l-1.294,4.83c-0.358,1.333,0.434,2.704,1.768,3.062c0.217,0.058,0.434,0.086,0.648,0.086   c1.104,0,2.114-0.736,2.413-1.854l1.294-4.83c0.358-1.333-0.434-2.704-1.768-3.062S58.942,6.967,58.585,8.301z"></path><path d="M91.699,58.585l-4.83-1.294c-1.333-0.359-2.705,0.434-3.062,1.768c-0.358,1.333,0.434,2.704,1.768,3.062l4.83,1.294   c0.217,0.058,0.434,0.086,0.648,0.086c1.104,0,2.114-0.736,2.413-1.854C93.824,60.313,93.033,58.943,91.699,58.585z"></path><path d="M14.425,37.88l-4.83-1.294c-1.335-0.357-2.704,0.433-3.062,1.768c-0.357,1.333,0.434,2.704,1.768,3.062l4.83,1.294   c0.217,0.058,0.434,0.086,0.648,0.086c1.104,0,2.114-0.736,2.413-1.854C16.55,39.608,15.759,38.237,14.425,37.88z"></path><path d="M90.405,36.585l-4.83,1.294c-1.334,0.357-2.125,1.728-1.768,3.062c0.299,1.117,1.309,1.854,2.413,1.854   c0.214,0,0.432-0.028,0.648-0.086l4.83-1.294c1.334-0.357,2.125-1.728,1.768-3.062C93.109,37.019,91.735,36.229,90.405,36.585z"></path><path d="M13.131,57.291l-4.83,1.294c-1.334,0.357-2.125,1.728-1.768,3.062C6.833,62.764,7.843,63.5,8.947,63.5   c0.214,0,0.432-0.028,0.648-0.086l4.83-1.294c1.334-0.357,2.125-1.728,1.768-3.062C15.835,57.725,14.462,56.932,13.131,57.291z"></path></svg>