<svg xmlns:dc="http://purl.org/dc/elements/1.1/" xmlns:cc="http://creativecommons.org/ns#" xmlns:rdf="http://www.w3.org/1999/02/22-rdf-syntax-ns#" xmlns:svg="http://www.w3.org/2000/svg" xmlns="http://www.w3.org/2000/svg" xmlns:sodipodi="http://sodipodi.sourceforge.net/DTD/sodipodi-0.dtd" xmlns:inkscape="http://www.inkscape.org/namespaces/inkscape" version="1.1" x="0px" y="0px" viewBox="0 0 100 100"><g transform="translate(0,-952.36218)"><path style="text-indent:0;text-transform:none;direction:ltr;block-progression:tb;baseline-shift:baseline;color:#000000;enable-background:accumulate;" d="m 12,974.36215 c -4.3974,0 -8,3.60255 -8,8 l 0,40.00005 c 0,4.3974 3.6026,8 8,8 l 76,0 c 4.3974,0 8,-3.6026 8,-8 l 0,-40.00005 c 0,-4.39745 -3.6026,-8 -8,-8 l -76,0 z m 0.031,4 75.9376,0 -35,32.78125 c -1.7074,1.6004 -4.165,1.6004 -5.875,0 L 12.0312,978.36215 z m -3.5312,2.125 22.7812,21.34375 -22.8437,22.3438 C 8.1658,1023.6306 8,1023.0252 8,1022.3622 l 0,-40.00005 c 0,-0.69347 0.2043,-1.31322 0.5,-1.875 z m 83,0 c 0.2957,0.56178 0.5,1.18153 0.5,1.875 l 0,40.00005 c 0,0.663 -0.1658,1.2684 -0.4375,1.8125 L 68.7188,1001.8622 91.5,980.48715 z m -57.2812,24.09375 10.125,9.5 c 3.1884,2.9841 8.1874,2.9568 11.375,-0.031 l 10.0937,-9.4687 22.2815,21.7812 c -0.032,7e-4 -0.062,0 -0.094,0 l -76,0 c -0.032,0 -0.062,7e-4 -0.094,0 l 22.3126,-21.7813 z" fill="#000000" fill-opacity="1" stroke="none" marker="none" visibility="visible" display="inline" overflow="visible"></path></g></svg>