<svg xmlns="http://www.w3.org/2000/svg" xmlns:xlink="http://www.w3.org/1999/xlink" version="1.1" x="0px" y="0px" viewBox="0 0 100 100" enable-background="new 0 0 100 100" xml:space="preserve"><path d="M93.081,83.817L76.043,66.779c-1.546-1.547-3.672-2.143-5.679-1.819l-3.79-3.79c10.885-13.576,10.039-33.454-2.55-46.043  C57.273,8.376,48.424,5,39.576,5c-8.849,0-17.697,3.376-24.449,10.127c-13.503,13.503-13.503,35.395,0,48.897  c6.751,6.751,15.6,10.127,24.449,10.127c7.651,0,15.299-2.529,21.595-7.577l3.79,3.79c-0.324,2.006,0.272,4.132,1.819,5.679  l17.038,17.038C85.095,94.36,86.773,95,88.449,95c1.676,0,3.353-0.64,4.632-1.919C95.64,90.523,95.64,86.375,93.081,83.817z   M39.576,66.508c-7.194,0-13.957-2.801-19.044-7.888c-5.087-5.087-7.888-11.85-7.888-19.044c0-7.194,2.801-13.957,7.888-19.044  c5.087-5.087,11.85-7.888,19.044-7.888c7.194,0,13.957,2.801,19.044,7.888c5.087,5.087,7.888,11.85,7.888,19.044  c0,7.194-2.801,13.957-7.888,19.044C53.533,63.707,46.769,66.508,39.576,66.508z"></path></svg>